<svg version="1.1" xmlns="http://www.w3.org/2000/svg" xmlns:xlink="http://www.w3.org/1999/xlink" width="20" height="24" viewBox="0,0,20,24"><g transform="translate(-230,-168)"><g data-paper-data="{&quot;isPaintingLayer&quot;:true}" fill="#1c9ffa" fill-rule="nonzero" stroke="none" stroke-width="1" stroke-linecap="butt" stroke-linejoin="miter" stroke-miterlimit="10" stroke-dasharray="" stroke-dashoffset="0" style="mix-blend-mode: normal"><path d="M250,174.5c0,0.8284 -0.67157,1.5 -1.5,1.5h-8.5v-6.5c0,-0.82843 0.6716,-1.5 1.5,-1.5h7c0.82843,0 1.5,0.67157 1.5,1.5z" data-paper-data="{&quot;index&quot;:null}"/><path d="M240,184h-8.5c-0.8284,0 -1.5,-0.6716 -1.5,-1.5v-5c0,-0.8284 0.6716,-1.5 1.5,-1.5h8.5z" data-paper-data="{&quot;index&quot;:null}"/><path d="M250,190.5c0,0.8284 -0.67157,1.5 -1.5,1.5h-7c-0.8284,0 -1.5,-0.6716 -1.5,-1.5v-6.5h8.5c0.82843,0 1.5,0.6716 1.5,1.5z" data-paper-data="{&quot;index&quot;:null}"/></g></g></svg>